<?xml version="1.0" encoding="UTF-8"?>
<svg xmlns="http://www.w3.org/2000/svg" version="1.1" viewBox="0 0 3161.33 810.67">
  <defs>
    <style>
      .cls-1 {
        fill: #ffffff;
      }

      .cls-2 {
        fill: #d7822b;
      }
    </style>
  </defs>
  <!-- Generator: Adobe Illustrator 28.7.1, SVG Export Plug-In . SVG Version: 1.2.0 Build 142)  -->
  <g>
    <g id="Camada_1">
      <g>
        <g>
          <path class="cls-2" d="M915.96,342.02c-6.14,0-10.74-1.75-13.8-5.24-3.07-3.49-4.6-7.98-4.6-13.49v-85.05c0-5.71-1.54-10.31-4.6-13.8-3.07-3.49-7.67-5.24-13.8-5.24s-11,1.75-13.96,5.24c-2.97,3.49-4.44,8.09-4.44,13.8,0,19.25,1.11,36.6,3.33,52.04,2.22,15.45,5.24,29.73,9.04,42.84,3.81,13.12,8.09,25.5,12.85,37.13,4.76,11.64,9.57,23.22,14.44,34.75,4.86,11.53,9.68,23.33,14.44,35.38,4.76,12.06,9.04,25.18,12.85,39.35,3.81,14.18,6.82,29.73,9.04,46.65,2.22,16.93,3.33,35.97,3.33,57.12,0,8.46-1.43,16.03-4.28,22.69-2.86,6.67-6.98,12.38-12.38,17.14-5.4,4.76-11.85,8.41-19.36,10.95-7.51,2.54-15.82,3.81-24.91,3.81-19.25,0-34.22-4.87-44.9-14.6-10.69-9.73-16.03-23.06-16.03-39.99v-97.11c0-1.9.53-3.49,1.59-4.76,1.06-1.27,2.64-1.9,4.76-1.9h17.77c6.13,0,10.74,1.75,13.8,5.24,3.06,3.49,4.6,7.99,4.6,13.49v85.05c0,5.71,1.53,10.31,4.6,13.8,3.06,3.49,7.67,5.24,13.8,5.24s11-1.75,13.96-5.24c2.96-3.49,4.44-8.09,4.44-13.8,0-27.08-1.96-50.78-5.87-71.09-3.92-20.31-8.84-38.77-14.76-55.38-5.93-16.61-12.27-32.37-19.04-47.29-6.77-14.92-13.12-30.62-19.04-47.13-5.93-16.5-10.84-34.7-14.76-54.58-3.92-19.88-5.87-43.16-5.87-69.82,0-8.46,1.43-16.03,4.28-22.69,2.86-6.66,6.98-12.38,12.38-17.14,5.39-4.76,11.79-8.41,19.2-10.95,7.4-2.54,15.76-3.81,25.07-3.81,19.25,0,34.22,4.87,44.91,14.6,10.68,9.73,16.03,23.06,16.03,39.99v97.11c0,1.9-.53,3.49-1.59,4.76-1.06,1.27-2.65,1.9-4.76,1.9h-17.77Z"/>
          <path class="cls-2" d="M1010.57,274.74c0-4.86,1.69-8.78,5.08-11.74,3.38-2.96,7.82-4.44,13.33-4.44h17.77c2.11,0,3.7.63,4.76,1.9,1.06,1.27,1.59,2.86,1.59,4.76v356.38c0,3.17-1.11,5.87-3.33,8.09-2.22,2.22-4.92,3.33-8.09,3.33h-19.68c-3.17,0-5.87-1.11-8.09-3.33-2.22-2.22-3.33-4.92-3.33-8.09v-346.86Z"/>
          <path class="cls-2" d="M1129.94,633.03c-2.12,0-3.7-.63-4.76-1.9-1.06-1.27-1.59-2.86-1.59-4.76v-361.14c0-1.9.53-3.49,1.59-4.76,1.06-1.27,2.64-1.9,4.76-1.9h17.77c5.5,0,9.94,1.48,13.33,4.44,3.38,2.97,5.08,6.88,5.08,11.74v322.75h39.03c4.86,0,8.78,1.7,11.74,5.08,2.96,3.39,4.44,7.83,4.44,13.33v10.79c0,2.12-.63,3.7-1.9,4.76-1.27,1.06-2.86,1.59-4.76,1.59h-84.73Z"/>
          <path class="cls-2" d="M1296.46,632.84c-1.9,0-3.39-.63-4.44-1.9-1.06-1.27-1.7-2.75-1.9-4.44l-34.91-360.19c-.21-1.9.37-3.7,1.75-5.39,1.37-1.69,3.54-2.54,6.51-2.54h15.55c5.29,0,9.68,1.54,13.17,4.6,3.49,3.07,5.44,6.82,5.87,11.27l16.19,267.84,16.5-267.84c.42-4.44,2.38-8.2,5.87-11.27,3.49-3.06,7.88-4.6,13.17-4.6h15.55c2.96,0,5.13.85,6.51,2.54,1.37,1.7,1.95,3.49,1.75,5.39l-34.91,360.19c-.21,1.7-.85,3.17-1.9,4.44-1.06,1.27-2.54,1.9-4.44,1.9h-35.86Z"/>
          <path class="cls-2" d="M1444.12,274.55c0-4.86,1.69-8.78,5.08-11.74,3.38-2.96,7.82-4.44,13.33-4.44h17.77c2.11,0,3.7.63,4.76,1.9,1.06,1.27,1.59,2.86,1.59,4.76v356.38c0,3.17-1.11,5.87-3.33,8.09s-4.92,3.33-8.09,3.33h-19.68c-3.17,0-5.87-1.11-8.09-3.33-2.22-2.22-3.33-4.92-3.33-8.09v-346.86Z"/>
          <path class="cls-2" d="M1634.29,258.37c1.9,0,3.38.63,4.44,1.9,1.06,1.27,1.69,2.75,1.9,4.44l34.91,360.19c.21,1.9-.37,3.7-1.75,5.39-1.38,1.7-3.55,2.54-6.51,2.54h-15.55c-5.29,0-9.68-1.53-13.17-4.6-3.49-3.06-5.45-6.82-5.87-11.27l-3.17-51.09h-26.34l-3.17,51.09c-.43,4.44-2.38,8.2-5.87,11.27-3.49,3.07-7.88,4.6-13.17,4.6h-15.55c-2.97,0-5.13-.84-6.51-2.54-1.38-1.69-1.96-3.49-1.75-5.39l34.91-360.19c.21-1.69.84-3.17,1.9-4.44,1.06-1.27,2.54-1.9,4.44-1.9h35.86ZM1605.42,530.34h21.9l-11.11-180.57-10.79,180.57Z"/>
        </g>
        <g>
          <path class="cls-2" d="M1908.68,252.53c1.48-14.6,3.28-26.18,5.4-34.75,2.11-8.57,4.44-15.07,6.98-19.52,2.54-4.44,5.29-7.3,8.25-8.57,2.96-1.27,5.92-1.9,8.89-1.9h24.12c2.11,0,3.7.63,4.76,1.9,1.06,1.27,1.59,2.86,1.59,4.76v430.96c0,1.9-.53,3.49-1.59,4.76-1.06,1.27-2.65,1.9-4.76,1.9h-17.77c-6.14,0-10.79-1.75-13.96-5.24s-4.66-7.98-4.44-13.49l9.52-311-32.69,313.86c-.43,4.44-2.86,8.2-7.3,11.27-4.44,3.07-9.31,4.6-14.6,4.6h-.63c-5.29,0-10.16-1.53-14.6-4.6-4.44-3.06-6.88-6.82-7.3-11.27l-33-314.49,9.52,311.64c.21,5.5-1.27,10-4.44,13.49-3.17,3.49-7.83,5.24-13.96,5.24h-17.77c-2.12,0-3.7-.63-4.76-1.9-1.06-1.27-1.59-2.86-1.59-4.76V194.45c0-1.9.53-3.49,1.59-4.76,1.06-1.27,2.64-1.9,4.76-1.9h21.58c2.96,0,6.08.58,9.36,1.75,3.28,1.17,6.4,3.97,9.36,8.41,2.96,4.44,5.66,10.95,8.09,19.52,2.43,8.57,4.39,20.26,5.87,35.07l27.61,268.48,27.93-268.48Z"/>
          <path class="cls-2" d="M2039.15,273.79c0-4.86,1.69-8.78,5.08-11.74,3.38-2.96,7.82-4.44,13.33-4.44h17.77c2.11,0,3.7.63,4.76,1.9,1.06,1.27,1.59,2.86,1.59,4.76v356.38c0,3.17-1.11,5.87-3.33,8.09s-4.92,3.33-8.09,3.33h-19.68c-3.17,0-5.87-1.11-8.09-3.33-2.22-2.22-3.33-4.92-3.33-8.09v-346.86Z"/>
          <path class="cls-2" d="M2213.74,257.61c9.09,0,17.34,1.32,24.75,3.97,7.4,2.65,13.75,6.3,19.04,10.95,5.29,4.66,9.36,10.37,12.22,17.14,2.86,6.77,4.28,14.28,4.28,22.53v115.52c0,9.31-1.85,16.93-5.55,22.85-3.7,5.93-8.84,10.69-15.39,14.28,6.55,3.6,11.69,8.31,15.39,14.12,3.7,5.82,5.55,13.28,5.55,22.37v124.08c0,1.9-.53,3.49-1.59,4.76-1.06,1.27-2.65,1.9-4.76,1.9h-17.77c-6.14,0-10.74-1.75-13.8-5.24-3.07-3.49-4.6-7.98-4.6-13.49v-112.02c0-5.71-1.43-10.31-4.28-13.8s-7.57-5.24-14.12-5.24h-18.41v131.07c0,5.5-1.54,10-4.6,13.49-3.07,3.49-7.67,5.24-13.8,5.24h-17.77c-2.12,0-3.7-.63-4.76-1.9-1.06-1.27-1.59-2.86-1.59-4.76v-361.14c0-1.9.53-3.49,1.59-4.76,1.06-1.27,2.64-1.9,4.76-1.9h55.22ZM2194.7,293.15v153.6h18.41c6.35,0,11-1.79,13.96-5.4,2.96-3.59,4.44-8.14,4.44-13.65v-115.52c0-5.5-1.54-10.05-4.6-13.65-3.07-3.59-7.67-5.39-13.8-5.39h-18.41Z"/>
          <path class="cls-2" d="M2421.69,259.51c1.9,0,3.38.63,4.44,1.9,1.06,1.27,1.69,2.75,1.9,4.44l34.91,360.19c.21,1.9-.37,3.7-1.75,5.39-1.38,1.7-3.55,2.54-6.51,2.54h-15.55c-5.29,0-9.68-1.53-13.17-4.6-3.49-3.06-5.45-6.82-5.87-11.27l-3.17-51.09h-26.34l-3.17,51.09c-.43,4.44-2.38,8.2-5.87,11.27-3.49,3.07-7.88,4.6-13.17,4.6h-15.55c-2.97,0-5.13-.84-6.51-2.54-1.38-1.69-1.96-3.49-1.75-5.39l34.91-360.19c.21-1.69.84-3.17,1.9-4.44,1.06-1.27,2.54-1.9,4.44-1.9h35.86ZM2392.81,531.48h21.9l-11.11-180.57-10.79,180.57Z"/>
          <path class="cls-2" d="M2649,257.61c2.11,0,3.7.63,4.76,1.9,1.06,1.27,1.59,2.86,1.59,4.76v361.14c0,1.9-.53,3.49-1.59,4.76-1.06,1.27-2.65,1.9-4.76,1.9h-17.77c-5.5,0-9.73-1.32-12.69-3.97-2.96-2.64-4.76-6.19-5.39-10.63,0-2.54-.79-7.62-2.38-15.23s-3.6-16.76-6.03-27.45c-2.43-10.68-5.13-22.42-8.09-35.23-2.97-12.8-5.93-25.86-8.89-39.19-2.97-13.33-5.77-26.44-8.41-39.35-2.65-12.9-4.81-24.64-6.51-35.23l3.17,187.55c.21,5.5-1.27,10-4.44,13.49-3.17,3.49-7.83,5.24-13.96,5.24h-17.77c-2.12,0-3.7-.63-4.76-1.9-1.06-1.27-1.59-2.86-1.59-4.76v-361.14c0-1.9.53-3.49,1.59-4.76,1.06-1.27,2.64-1.9,4.76-1.9h17.77c5.29,0,9.57,1.43,12.85,4.28,3.28,2.86,5.13,6.61,5.55,11.27.42,3.39,1.37,9.47,2.86,18.25,1.48,8.78,3.38,19.1,5.71,30.94,2.33,11.85,4.86,24.75,7.62,38.72,2.75,13.96,5.55,27.88,8.41,41.73,2.86,13.86,5.6,27.03,8.25,39.51,2.64,12.49,5.02,23.28,7.14,32.37l-3.17-200.88c0-4.86,1.69-8.78,5.08-11.74,3.38-2.96,7.82-4.44,13.33-4.44h17.77Z"/>
          <path class="cls-2" d="M2787.4,257.61c9.09,0,17.34,1.27,24.75,3.81,7.4,2.54,13.75,6.19,19.04,10.95,5.29,4.76,9.36,10.53,12.22,17.29,2.86,6.77,4.28,14.28,4.28,22.53v265.3c0,16.93-5.35,30.26-16.03,39.99-10.69,9.73-25.66,14.6-44.91,14.6h-54.58c-2.12,0-3.7-.63-4.76-1.9-1.06-1.27-1.59-2.86-1.59-4.76v-361.14c0-1.9.53-3.49,1.59-4.76,1.06-1.27,2.64-1.9,4.76-1.9h55.22ZM2786.77,596.54c6.35,0,11-1.79,13.96-5.4,2.96-3.59,4.44-8.14,4.44-13.65v-265.3c0-5.5-1.43-10.05-4.28-13.65-2.86-3.59-7.57-5.39-14.12-5.39h-18.41v303.39h18.41Z"/>
          <path class="cls-2" d="M2995.36,257.61c1.9,0,3.38.63,4.44,1.9,1.06,1.27,1.69,2.75,1.9,4.44l34.91,360.19c.21,1.9-.37,3.7-1.75,5.39-1.38,1.7-3.55,2.54-6.51,2.54h-15.55c-5.29,0-9.68-1.53-13.17-4.6-3.49-3.06-5.45-6.82-5.87-11.27l-3.17-51.09h-26.34l-3.17,51.09c-.43,4.44-2.38,8.2-5.87,11.27-3.49,3.07-7.88,4.6-13.17,4.6h-15.55c-2.97,0-5.13-.84-6.51-2.54-1.38-1.69-1.96-3.49-1.75-5.39l34.91-360.19c.21-1.69.84-3.17,1.9-4.44,1.06-1.27,2.54-1.9,4.44-1.9h35.86ZM2966.48,529.58h21.9l-11.11-180.57-10.79,180.57Z"/>
        </g>
        <g>
          <path class="cls-1" d="M326.71,424.86l-14.99,16.13-14.99,16.13-141.38-131.4c-.1,112.71-.18,225.41-.26,338.12-15.06,13.18-30.12,26.34-45.17,39.52V166.52c15.17,14,30.35,28,45.52,42-.02,19.03-.03,38.06-.05,57.09l171.32,159.24Z"/>
          <path class="cls-1" d="M483.11,424.86l14.99,16.13,14.99,16.13,141.38-131.4c.1,112.71.18,225.41.26,338.12,15.06,13.18,30.12,26.34,45.17,39.52V166.52c-15.17,14-30.35,28-45.52,42,.02,19.03.03,38.06.05,57.09l-171.32,159.24Z"/>
          <path class="cls-1" d="M549.37,564.76c-2.49,20.63-14.41,33.62-18.38,37.62-49.44,49.92-98.87,99.85-148.31,149.78-37.34-34.97-74.68-69.94-112.02-104.9l.35-.32c19.28-17.69,49-17.34,67.84.81l43.36,41.75,115.14-115.2c1.21-1.96,6.53-11.06,3.93-22.61-1.77-7.9-6.73-13.16-8.89-15.38-73.86-75.77-199.39-193.01-199.39-193.01-8.99-8.39-23.07-21.8-39.92-39.05-2.85-3.68-16.3-21.87-13.24-47.24,2.49-20.63,14.41-33.62,18.38-37.62,49.44-49.92,98.87-99.85,148.31-149.78,37.34,34.97,74.68,69.94,112.02,104.9l-.35.32c-19.28,17.69-49,17.34-67.84-.81l-43.36-41.75-115.14,115.2c-1.21,1.96-6.53,11.06-3.93,22.61,1.8,8.02,6.79,13.26,8.89,15.38,89.98,90.82,199.39,193.01,199.39,193.01,8.99,8.39,23.07,21.8,39.92,39.05,2.85,3.68,16.3,21.87,13.24,47.24Z"/>
        </g>
      </g>
    </g>
  </g>
</svg>